<?xml version="1.0" encoding="UTF-8"?>
<svg version="1.1" xmlns="http://www.w3.org/2000/svg" width="300" height="300">
<path d="M0 0 C1.04911812 -0.00143509 1.04911812 -0.00143509 2.11943054 -0.00289917 C3.58588756 -0.00357559 5.05234767 -0.00175907 6.51879883 0.00244141 C8.77236533 0.007838 11.02573618 0.00245767 13.27929688 -0.00390625 C14.70703169 -0.00324616 16.13476639 -0.00196645 17.5625 0 C18.85969971 0.00112793 20.15689941 0.00225586 21.4934082 0.00341797 C24.44921875 0.1328125 24.44921875 0.1328125 25.44921875 1.1328125 C25.49002658 3.13239614 25.49176231 5.13326504 25.44921875 7.1328125 C28.41921875 7.6278125 28.41921875 7.6278125 31.44921875 8.1328125 C32.03769697 33.78743524 32.45267733 59.4415721 32.703125 85.1015625 C32.71866834 86.68523054 32.71866834 86.68523054 32.73452568 88.30089188 C32.83916627 99.0136283 32.93893497 109.72639477 33.02984524 120.43925667 C33.25192583 146.34630804 33.67809816 172.23601265 34.44921875 198.1328125 C36.79814151 196.81927017 39.14699588 195.50560915 41.49536133 194.19107056 C43.31220368 193.17615776 45.13267658 192.16773817 46.95507812 191.1628418 C47.72658203 190.72367432 48.49808594 190.28450684 49.29296875 189.83203125 C50.48696289 189.16433716 50.48696289 189.16433716 51.70507812 188.4831543 C52.56842773 187.81473511 52.56842773 187.81473511 53.44921875 187.1328125 C53.44921875 183.60263453 52.91097496 183.21684451 50.69921875 180.6328125 C37.26390444 163.2683025 40.26243866 135.41325056 40.26391602 114.69775391 C40.26172719 111.27103281 40.2434965 107.84463337 40.22460938 104.41796875 C40.11379742 61.59040347 40.11379742 61.59040347 51.05859375 50.05078125 C60.720991 42.29875992 72.03234786 38.0895259 84.26171875 37.0078125 C85.19024658 36.9243457 86.11877441 36.84087891 87.07543945 36.75488281 C108.63069047 34.94553412 136.88117055 34.26177909 155.44921875 47.1328125 C168.12513873 58.0501227 174.60008572 68.77174165 176.1796875 85.640625 C176.34277631 87.84558573 176.49508022 90.05137005 176.63671875 92.2578125 C176.75950195 93.91103516 176.75950195 93.91103516 176.88476562 95.59765625 C177.34510486 102.11977349 177.5568587 108.59529555 177.44921875 115.1328125 C173.49750455 116.43114079 169.50408439 116.27674641 165.39453125 116.265625 C164.61536346 116.26658173 163.83619568 116.26753845 163.03341675 116.26852417 C161.38767414 116.26920352 159.74192883 116.26736631 158.09619141 116.26318359 C155.59010725 116.25784634 153.08420349 116.2631294 150.578125 116.26953125 C148.97526002 116.26887014 147.37239516 116.26758831 145.76953125 116.265625 C144.65362106 116.26866135 144.65362106 116.26866135 143.51516724 116.27175903 C139.39847263 116.25341468 135.45394105 116.13191004 131.44921875 115.1328125 C129.82421875 112.6953125 129.82421875 112.6953125 128.44921875 110.1328125 C127.79308594 109.84148437 127.13695312 109.55015625 126.4609375 109.25 C124.44921875 108.1328125 124.44921875 108.1328125 123.5078125 106.07421875 C123.20037109 104.89666016 123.20037109 104.89666016 122.88671875 103.6953125 C121.99166169 100.32078061 121.21256271 98.3421364 118.44921875 96.1328125 C114.09671368 94.68197748 109.8680812 94.27938321 105.51171875 95.81640625 C99.98762072 98.68560372 97.32566684 102.64185476 95.26171875 108.5078125 C93.4492826 116.59406608 93.32253433 124.37770803 93.38671875 132.6328125 C93.39123047 133.74140625 93.39574219 134.85 93.40039062 135.9921875 C93.41208717 138.70578649 93.42847789 141.41927011 93.44921875 144.1328125 C94.39152344 144.26945313 95.33382812 144.40609375 96.3046875 144.546875 C99.5987921 145.16068331 101.06200857 145.83401751 103.44921875 148.1328125 C103.77921875 149.1228125 104.10921875 150.1128125 104.44921875 151.1328125 C105.98832611 151.26968964 107.5310917 151.36565255 109.07421875 151.4453125 C109.93273437 151.50332031 110.79125 151.56132812 111.67578125 151.62109375 C115.55871484 150.93747868 117.97695096 149.09490345 120.44921875 146.1328125 C121.75735116 143.61105025 122.5613581 141.05041312 123.32421875 138.3203125 C123.535625 137.62744141 123.74703125 136.93457031 123.96484375 136.22070312 C124.47783729 134.53015624 124.96613704 132.8321486 125.44921875 131.1328125 C139.91717357 130.86653112 154.06411636 131.5666337 168.44921875 133.1328125 C168.86494141 134.31617188 168.86494141 134.31617188 169.2890625 135.5234375 C170.73976242 138.7862912 172.33098639 139.53371898 175.44921875 141.1328125 C176.44921875 142.1328125 176.44921875 142.1328125 176.51855469 143.96435547 C174.99227646 187.27030719 174.99227646 187.27030719 163.76953125 199.24609375 C157.04378692 204.71500707 148.75973975 207.94918071 140.44921875 210.1328125 C141.45984375 210.90625 142.47046875 211.6796875 143.51171875 212.4765625 C144.82523562 213.527376 146.13768034 214.57953069 147.44921875 215.6328125 C148.11695313 216.138125 148.7846875 216.6434375 149.47265625 217.1640625 C154.17954937 221.00642423 154.17954937 221.00642423 154.95703125 224.25390625 C155.01171875 226.4140625 155.01171875 226.4140625 154.44921875 230.1328125 C152.44921875 232.1328125 152.44921875 232.1328125 149.84763527 232.15364647 C148.24102563 231.99666755 148.24102563 231.99666755 146.60195923 231.83651733 C145.42694477 231.7265379 144.25193031 231.61655846 143.04130936 231.50324631 C141.85591946 231.38100315 140.67052956 231.25875999 139.44921875 231.1328125 C138.4262608 231.03408466 137.40330284 230.93535683 136.34934616 230.83363724 C133.23307827 230.5276936 130.11924559 230.20291853 127.00537109 229.87353516 C125.25410919 229.69034981 125.25410919 229.69034981 123.46746826 229.50346375 C112.84317637 228.38935113 102.22064536 227.25813147 91.59877586 226.12114906 C83.76396452 225.2826441 75.92831838 224.45304848 68.09133565 223.63507998 C62.55546876 223.05654039 57.02072762 222.46793706 51.4867245 221.87183607 C48.18931625 221.51693275 44.89146345 221.16786169 41.59257126 220.82698441 C37.92664847 220.44724482 34.26285423 220.05111745 30.59912109 219.65087891 C29.50824188 219.54167618 28.41736267 219.43247345 27.29342651 219.31996155 C26.29839111 219.20789871 25.30335571 219.09583588 24.27816772 218.9803772 C23.41289648 218.88857492 22.54762524 218.79677265 21.65613365 218.70218849 C19.0548241 218.03106012 18.00811638 217.31014112 16.44921875 215.1328125 C16.76171875 211.9453125 16.76171875 211.9453125 17.44921875 209.1328125 C16.397948 209.15637817 16.397948 209.15637817 15.32543945 209.18041992 C12.13761524 209.24293662 8.94992024 209.28185631 5.76171875 209.3203125 C4.65892578 209.34544922 3.55613281 209.37058594 2.41992188 209.39648438 C1.35322266 209.40615234 0.28652344 209.41582031 -0.8125 209.42578125 C-2.281427 209.44934692 -2.281427 209.44934692 -3.7800293 209.47338867 C-7.0510283 209.07132297 -8.91364491 208.07975278 -11.55078125 206.1328125 C-12.36328125 203.9453125 -12.36328125 203.9453125 -12.55078125 202.1328125 C-15.25077851 203.13566862 -17.64856614 204.19243743 -20.11328125 205.6953125 C-27.39021629 209.98683829 -37.77589558 209.15372927 -45.77734375 207.2265625 C-60.7460306 203.08095638 -72.68535321 193.98032801 -81.57421875 181.23046875 C-83.07330505 178.57853182 -84.35320248 175.93266907 -85.55078125 173.1328125 C-86.11152344 171.91464844 -86.11152344 171.91464844 -86.68359375 170.671875 C-92.61642406 156.38913537 -93.07110553 140.10064923 -92.99682617 124.85375977 C-92.9882939 122.19924673 -93.01727876 119.54688245 -93.04882812 116.89257812 C-93.11626553 100.40318298 -92.20448557 80.94985963 -80.703125 68.0625 C-69.66696681 57.57485862 -54.16228617 56.02351653 -39.55078125 56.1328125 C-31.66528487 56.54881608 -24.70161733 57.8170108 -17.55078125 61.1328125 C-17.55601807 60.47724365 -17.56125488 59.8216748 -17.56665039 59.14624023 C-17.65753128 45.81205791 -17.61966508 32.47823108 -17.287323 19.14749146 C-17.25464073 17.76322369 -17.22706905 16.37882578 -17.20462036 14.99435425 C-17.1716042 13.04932486 -17.11753037 11.10468731 -17.0625 9.16015625 C-17.03631592 8.04374756 -17.01013184 6.92733887 -16.9831543 5.77709961 C-16.84047119 4.90448486 -16.69778809 4.03187012 -16.55078125 3.1328125 C-11.40887492 -0.29512505 -6.04414788 0.0052327 0 0 Z M-41.55078125 107.1328125 C-42.43765625 107.8546875 -43.32453125 108.5765625 -44.23828125 109.3203125 C-49.30248046 115.47947371 -50.10827172 122.9386984 -50.05078125 130.6953125 C-50.04796143 131.55503662 -50.0451416 132.41476074 -50.04223633 133.30053711 C-49.83474163 141.65663385 -48.4972741 152.276377 -43.04296875 158.98828125 C-39.19531156 161.93949475 -35.24701848 162.31748288 -30.55078125 162.0703125 C-25.3376516 161.38045474 -23.01551144 160.10457638 -19.55078125 156.1328125 C-15.88751531 149.12357137 -15.38986963 141.60441785 -15.3125 133.8125 C-15.30442825 133.03141876 -15.29635651 132.25033752 -15.28804016 131.44558716 C-15.27427836 129.80342786 -15.26352128 128.1612409 -15.25561523 126.51904297 C-15.24403394 124.84122323 -15.22348638 123.16344205 -15.1940918 121.48583984 C-15.15151967 119.05280718 -15.13526886 116.62085825 -15.125 114.1875 C-15.10749191 113.43951141 -15.08998383 112.69152283 -15.07194519 111.92086792 C-15.08653605 108.42433564 -15.26754063 106.50519465 -17.41333008 103.68408203 C-24.68581933 98.40602416 -35.19773784 101.96173066 -41.55078125 107.1328125 Z M93.44921875 148.1328125 C93.44921875 148.7928125 93.44921875 149.4528125 93.44921875 150.1328125 C94.43921875 149.8028125 95.42921875 149.4728125 96.44921875 149.1328125 C95.45921875 148.8028125 94.46921875 148.4728125 93.44921875 148.1328125 Z M48.74755859 195.83959961 C47.55240822 196.49136706 46.35349805 197.13628871 45.15087891 197.77416992 C43.41857368 198.6936682 41.69929095 199.63756911 39.98046875 200.58203125 C38.94470703 201.14237061 37.90894531 201.70270996 36.84179688 202.2800293 C34.22326852 203.94203183 34.22326852 203.94203183 33.60351562 206.85473633 C33.55259766 207.60650146 33.50167969 208.3582666 33.44921875 209.1328125 C31.46354167 209.10026042 29.47786458 209.06770833 27.4921875 209.03515625 C25.24616414 209.05018033 25.24616414 209.05018033 22.44921875 210.1328125 C22.11921875 211.1228125 21.78921875 212.1128125 21.44921875 213.1328125 C22.05421676 213.19888923 22.65921476 213.26496595 23.28254604 213.33304501 C38.03168424 214.94392356 52.78081229 216.55489507 67.52992916 218.16596889 C74.66260733 218.94508252 81.79528888 219.72416517 88.92797852 220.50317383 C95.14782608 221.18248499 101.36766717 221.86185535 107.58750063 222.54129559 C110.87810688 222.90075175 114.16871723 223.26017027 117.45933342 223.61953545 C121.14078481 224.02158847 124.82222476 224.42374613 128.50366211 224.82592773 C129.58404251 224.94389206 130.66442291 225.06185638 131.77754211 225.18339539 C137.66879027 225.82711139 143.55937309 226.47638454 149.44921875 227.1328125 C148.34253146 223.81275063 147.5034928 223.0745528 144.88671875 220.8828125 C140.44921875 217.1328125 140.44921875 217.1328125 138.80908203 215.36645508 C133.99063382 210.47133557 130.49051641 209.34492993 123.66870117 209.26416016 C122.60627197 209.28269043 121.54384277 209.3012207 120.44921875 209.3203125 C118.21608563 209.2952522 115.98300199 209.26530599 113.75 209.23046875 C112.67057129 209.22031738 111.59114258 209.21016602 110.47900391 209.19970703 C91.49551753 208.78057123 76.00095866 204.50228527 61.91015625 191.41796875 C58.35073477 188.28681991 52.25839237 193.91332279 48.74755859 195.83959961 Z " fill="#636363" transform="translate(106.55078125,36.8671875)"/>
<path d="M0 0 C1.43352212 0.00015908 2.86704998 0.00585132 4.30053711 0.01586914 C5.43041298 0.01799156 5.43041298 0.01799156 6.58311462 0.02015686 C8.99807646 0.02577163 11.41294687 0.03832656 13.82788086 0.05102539 C15.46134307 0.05603849 17.09480672 0.06060173 18.72827148 0.06469727 C22.74067671 0.07574585 26.75301326 0.09302033 30.76538086 0.11352539 C31.03279049 15.94071852 31.29362669 31.7680075 31.54768372 47.59541988 C31.66592107 54.95298607 31.78594067 62.31051321 31.91088867 69.66796875 C32.61976089 111.48762314 32.89009159 153.28779869 32.76538086 195.11352539 C20.22538086 195.11352539 7.68538086 195.11352539 -5.23461914 195.11352539 C-5.23461914 191.48352539 -5.23461914 187.85352539 -5.23461914 184.11352539 C-6.22461914 184.11352539 -7.21461914 184.11352539 -8.23461914 184.11352539 C-8.46149414 184.67040039 -8.68836914 185.22727539 -8.92211914 185.80102539 C-11.80258082 190.87612454 -15.80748714 194.1034765 -21.23461914 196.11352539 C-32.74607227 198.6160152 -45.98140563 195.79623864 -56.23461914 190.11352539 C-70.90781584 179.67763797 -76.60303574 164.30877675 -79.65649414 147.23071289 C-83.18128322 123.74956849 -86.06557909 89.23312457 -71.56665039 68.75805664 C-66.11572143 62.15196393 -60.29693487 58.62814601 -51.98461914 56.86352539 C-51.20393066 56.6958667 -50.42324219 56.52820801 -49.61889648 56.35546875 C-35.21451348 53.51929044 -21.80915943 54.49700362 -8.0612793 59.67285156 C-6.98506821 60.07765999 -6.98506821 60.07765999 -5.88711548 60.49064636 C-5.34179169 60.69619644 -4.7964679 60.90174652 -4.23461914 61.11352539 C-4.23683975 60.36406143 -4.23906036 59.61459747 -4.24134827 58.84242249 C-4.26135094 51.79370248 -4.27659315 44.74499224 -4.28643131 37.69625187 C-4.29165916 34.0720658 -4.29875501 30.44790309 -4.31005859 26.82373047 C-4.32089098 23.32892564 -4.32689672 19.83414336 -4.32949638 16.33932304 C-4.33225465 14.3511315 -4.34006602 12.36294908 -4.34791565 10.37477112 C-4.34799118 9.17360153 -4.34806671 7.97243195 -4.34814453 6.73486328 C-4.35036514 5.67119034 -4.35258575 4.6075174 -4.35487366 3.51161194 C-4.16941061 -0.18684737 -3.80146348 0.13341992 0 0 Z M-32.23461914 103.11352539 C-33.12149414 103.83540039 -34.00836914 104.55727539 -34.92211914 105.30102539 C-39.98631836 111.4601866 -40.79210961 118.91941129 -40.73461914 126.67602539 C-40.73179932 127.53574951 -40.72897949 128.39547363 -40.72607422 129.28125 C-40.51857952 137.63734674 -39.18111199 148.25708989 -33.72680664 154.96899414 C-29.87914945 157.92020764 -25.93085637 158.29819577 -21.23461914 158.05102539 C-16.02148949 157.36116763 -13.69934933 156.08528927 -10.23461914 152.11352539 C-6.5713532 145.10428426 -6.07370752 137.58513074 -5.99633789 129.79321289 C-5.98826614 129.01213165 -5.9801944 128.23105042 -5.97187805 127.42630005 C-5.95811625 125.78414075 -5.94735917 124.14195379 -5.93945312 122.49975586 C-5.92787183 120.82193612 -5.90732427 119.14415494 -5.87792969 117.46655273 C-5.83535756 115.03352007 -5.81910675 112.60157114 -5.80883789 110.16821289 C-5.7913298 109.4202243 -5.77382172 108.67223572 -5.75578308 107.90158081 C-5.77037394 104.40504853 -5.95137852 102.48590754 -8.09716797 99.66479492 C-15.36965722 94.38673705 -25.88157574 97.94244355 -32.23461914 103.11352539 Z " fill="#F4EED9" transform="translate(97.234619140625,40.886474609375)"/>
<path d="M0 0 C1.10074356 -0.00151062 1.10074356 -0.00151062 2.22372437 -0.00305176 C21.55221772 0.01488676 43.79959817 0.98709817 58.3125 15.5 C58.89 16.4075 59.4675 17.315 60.0625 18.25 C60.48273438 18.889375 60.90296875 19.52875 61.3359375 20.1875 C69.15054648 33.55816046 68.17507876 53.27599878 67.0625 68.25 C65.07028879 70.24221121 61.27789022 69.41986842 58.60766602 69.44311523 C54.41282376 69.43553558 50.22031714 69.38064522 46.02636719 69.29492188 C43.43281849 69.25561273 40.85084633 69.28588956 38.2578125 69.328125 C34.19987736 69.26437805 30.83569257 68.89935963 27.0625 67.25 C24.0744445 63.91270534 22.45957269 59.97380029 20.8359375 55.8515625 C19.17890989 51.90268519 16.85661486 50.27153627 13.0625 48.25 C7.05821931 46.2485731 1.0385862 46.53506726 -4.8125 48.9375 C-8.57148845 50.86671629 -10.93677202 52.40860228 -12.9375 56.25 C-15.96419871 66.5481578 -15.54275082 77.99623739 -15.85839844 88.6484375 C-15.92437153 90.81821937 -16.01046985 92.9873775 -16.1015625 95.15625 C-16.26339056 100.98206007 -16.03850235 105.22423757 -12.9375 110.25 C-9.34078036 113.14735749 -5.37306121 114.11936675 -0.9375 115.25 C-1.25 117.625 -1.25 117.625 -1.9375 120.25 C-4.9375 122.25 -4.9375 122.25 -8 122.9375 C-8.969375 123.370625 -9.93875 123.80375 -10.9375 124.25 C-11.19080078 125.83167969 -11.19080078 125.83167969 -11.44921875 127.4453125 C-12.14055883 130.20890105 -12.76363368 131.1160302 -15.05688477 132.88305664 C-17.89016891 134.50727999 -20.75825869 135.99353425 -23.6875 137.4375 C-25.66264727 138.4495058 -27.63663873 139.46377111 -29.609375 140.48046875 C-30.53427734 140.95145996 -31.45917969 141.42245117 -32.41210938 141.90771484 C-35.41723203 143.50498518 -38.16833396 145.27673373 -40.9375 147.25 C-47.22705644 144.68452303 -50.50536545 138.40950914 -53.20703125 132.44921875 C-57.87700722 119.52370473 -58.25350251 105.84717729 -58.23828125 92.25390625 C-58.24218638 90.76667668 -58.24652463 89.2794482 -58.25126648 87.79222107 C-58.25865423 84.70055498 -58.25849182 81.60900324 -58.25317383 78.51733398 C-58.24738082 74.60349484 -58.2643427 70.6901292 -58.2875185 66.77636814 C-58.30242151 63.71239093 -58.3031055 60.64852357 -58.30000877 57.58451653 C-58.30051344 56.14357502 -58.30558521 54.7026259 -58.31582069 53.26172066 C-58.39356453 40.79513348 -58.49156274 24.23319187 -49.9375 14.25 C-35.93249672 1.19311106 -18.11790959 0.01723126 0 0 Z " fill="#F4EED9" transform="translate(207.9375,75.75)"/>
<path d="M0 0 C13.01633924 -0.20956539 25.99965929 0.42424875 39 1 C37.49434248 45.66171912 37.49434248 45.66171912 27.10546875 56.31640625 C20.17484332 61.85833493 11.69726542 64.09234146 3 65 C2.17886719 65.10828125 1.35773438 65.2165625 0.51171875 65.328125 C-3.16634696 64.84763119 -4.68085806 62.99297285 -7.3125 60.4375 C-8.29244682 59.50465974 -9.2729174 58.57236938 -10.25390625 57.640625 C-11.61322266 56.33351563 -11.61322266 56.33351563 -13 55 C-14.24055239 53.88522926 -15.48954193 52.77971312 -16.75 51.6875 C-17.67039063 50.87539062 -17.67039063 50.87539062 -18.609375 50.046875 C-20.65779403 48.29299988 -22.73392209 46.58900943 -24.828125 44.890625 C-26.21879665 43.7396397 -27.60942117 42.58859745 -29 41.4375 C-29.68416992 40.89504639 -30.36833984 40.35259277 -31.07324219 39.79370117 C-35.90251951 35.75808486 -35.90251951 35.75808486 -36.4375 31.59765625 C-36.293125 30.74042969 -36.14875 29.88320312 -36 29 C-35.37351563 28.76925781 -34.74703125 28.53851563 -34.1015625 28.30078125 C-32.87566406 27.81158203 -32.87566406 27.81158203 -31.625 27.3125 C-30.81289062 26.99925781 -30.00078125 26.68601563 -29.1640625 26.36328125 C-26.41598604 24.63209229 -25.92103205 23.05155123 -25 20 C-24.04738281 19.90203125 -23.09476563 19.8040625 -22.11328125 19.703125 C-20.85902344 19.55359375 -19.60476562 19.4040625 -18.3125 19.25 C-17.07113281 19.11078125 -15.82976562 18.9715625 -14.55078125 18.828125 C-10.62194622 17.91182904 -8.82056788 16.84584179 -6 14 C-4.65713259 11.86176308 -4.65713259 11.86176308 -3.8125 9.5625 C-3.50957031 8.82128906 -3.20664063 8.08007812 -2.89453125 7.31640625 C-2.59933594 6.55199219 -2.30414063 5.78757813 -2 5 C-1.33373642 3.33317216 -0.66717338 1.66646389 0 0 Z " fill="#F3EDD8" transform="translate(234,172)"/>
<path d="M0 0 C1.74609375 1.20703125 1.74609375 1.20703125 3.4375 2.8125 C7.22306597 6.29637001 11.08421821 9.66435323 15 13 C16.21130071 14.03733645 17.42224533 15.07508886 18.6328125 16.11328125 C20.64761162 17.84081629 22.66315679 19.5674534 24.6796875 21.29296875 C25.40414062 21.91816406 26.12859375 22.54335937 26.875 23.1875 C27.79925781 23.98220703 27.79925781 23.98220703 28.7421875 24.79296875 C29.15726563 25.19128906 29.57234375 25.58960938 30 26 C30 26.33 30 26.66 30 27 C-12.87215437 30.97490173 -12.87215437 30.97490173 -27.0625 19.75 C-28.40182483 18.52878534 -29.72621706 17.28943138 -31 16 C-29.29454866 10.88364598 -24.06340139 9.26403955 -19.51806641 6.73730469 C-17.7608173 5.75604048 -16.01925151 4.75037513 -14.27734375 3.7421875 C-12.61638672 2.81019531 -12.61638672 2.81019531 -10.921875 1.859375 C-9.90706055 1.28670898 -8.89224609 0.71404297 -7.84667969 0.12402344 C-4.64103758 -1.14173782 -3.22496914 -1.08624247 0 0 Z " fill="#F1EBD6" transform="translate(199,210)"/>
<path d="M0 0 C0.72864258 -0.02223633 1.45728516 -0.04447266 2.20800781 -0.06738281 C7.33100915 -0.04637734 10.4875423 0.82934645 14.375 4.4375 C18.13017565 11.12566547 17.80404869 17.98264957 17.71118164 25.51660156 C17.6877891 27.53752448 17.69061104 29.55710252 17.69726562 31.578125 C17.56030431 57.02802805 17.56030431 57.02802805 11.375 65.4375 C6.0746713 70.47927608 1.51708765 70.80081479 -5.55078125 70.70703125 C-10.94923803 70.2337231 -14.60043194 68.56352705 -18.33984375 64.63671875 C-27.33723128 53.30748995 -28.52220129 39.10316998 -27.18164062 25.07446289 C-26.26721597 17.30459663 -25.01617594 10.92287527 -19.375 5.125 C-12.80722285 1.09477311 -7.5621734 0.13244302 0 0 Z M-11.625 13.4375 C-12.511875 14.159375 -13.39875 14.88125 -14.3125 15.625 C-19.37669921 21.78416121 -20.18249047 29.2433859 -20.125 37 C-20.12218018 37.85972412 -20.11936035 38.71944824 -20.11645508 39.60522461 C-19.90896038 47.96132135 -18.57149285 58.5810645 -13.1171875 65.29296875 C-9.26953031 68.24418225 -5.32123723 68.62217038 -0.625 68.375 C4.58812965 67.68514224 6.91026981 66.40926388 10.375 62.4375 C14.03826594 55.42825887 14.53591162 47.90910535 14.61328125 40.1171875 C14.621353 39.33610626 14.62942474 38.55502502 14.63774109 37.75027466 C14.65150289 36.10811536 14.66225997 34.4659284 14.67016602 32.82373047 C14.68174731 31.14591073 14.70229487 29.46812955 14.73168945 27.79052734 C14.77426158 25.35749468 14.79051239 22.92554575 14.80078125 20.4921875 C14.81828934 19.74419891 14.83579742 18.99621033 14.85383606 18.22555542 C14.8392452 14.72902314 14.65824062 12.80988215 12.51245117 9.98876953 C5.23996192 4.71071166 -5.27195659 8.26641816 -11.625 13.4375 Z " fill="#636363" transform="translate(76.625,130.5625)"/>
<path d="M0 0 C0.66 1.32 1.32 2.64 2 4 C0.10595266 7.34243648 -0.94091591 7.97997149 -4.6875 9.25 C-6.3271875 9.62125 -6.3271875 9.62125 -8 10 C-8.37658779 12.81346586 -8.37658779 12.81346586 -8 16 C-6.12336068 18.4232647 -6.12336068 18.4232647 -3.5 20.4375 C-2.5821875 21.20964844 -1.664375 21.98179687 -0.71875 22.77734375 C0.1784375 23.51082031 1.075625 24.24429688 2 25 C3.33827069 26.16099976 4.67207507 27.32718106 6 28.5 C6.63421875 29.05300781 7.2684375 29.60601562 7.921875 30.17578125 C13.4044223 34.98846844 18.88098271 39.79879666 24 45 C19.87255657 45 18.95305417 43.38249504 16 40.5625 C11.35236861 36.19536271 6.55521893 32.10475829 1.5703125 28.12109375 C-1.4674456 25.61425082 -4.28213452 22.91694262 -7.05078125 20.1171875 C-9.95489226 18.45270704 -11.79321388 19.25004934 -15 20 C-17.79220702 21.27941234 -17.79220702 21.27941234 -20.51171875 22.94140625 C-22.01895508 23.81635742 -22.01895508 23.81635742 -23.55664062 24.70898438 C-24.58982422 25.32064453 -25.62300781 25.93230469 -26.6875 26.5625 C-28.75051513 27.7779099 -30.81677834 28.98782853 -32.88671875 30.19140625 C-33.79639404 30.72967041 -34.70606934 31.26793457 -35.64331055 31.82250977 C-38 33 -38 33 -41 33 C-38.0315961 29.73917956 -35.12289301 27.80366787 -31.2109375 25.79296875 C-30.10492188 25.20580078 -28.99890625 24.61863281 -27.859375 24.01367188 C-25.53511457 22.79551969 -23.20431147 21.58977094 -20.8671875 20.39648438 C-15.09456879 17.63962981 -15.09456879 17.63962981 -10.94262695 13.06762695 C-10.558787 11.39286692 -10.27234855 9.69646118 -10 8 C-7.87109375 6.58203125 -7.87109375 6.58203125 -5.4375 5.8125 C-3.02180448 5.09873498 -3.02180448 5.09873498 -1 4 C-0.15732967 1.96224957 -0.15732967 1.96224957 0 0 Z " fill="#83827D" transform="translate(207,191)"/>
</svg>
